<svg width="512" height="512" viewBox="0 0 512 512" fill="none" xmlns="http://www.w3.org/2000/svg">
  <circle cx="256" cy="256" r="256" fill="url(#gradient)"/>
  <path d="M114 200 C114 186.7 124.7 176 138 176 L374 176 C387.3 176 398 186.7 398 200 C398 213.3 387.3 224 374 224 L138 224 C124.7 224 114 213.3 114 200Z" fill="white"/>
  <path d="M114 280 C114 266.7 124.7 256 138 256 L374 256 C387.3 256 398 266.7 398 280 C398 293.3 387.3 304 374 304 L138 304 C124.7 304 114 293.3 114 280Z" fill="white"/>
  <path d="M114 360 C114 346.7 124.7 336 138 336 L258 336 C271.3 336 282 346.7 282 360 C282 373.3 271.3 384 258 384 L138 384 C124.7 384 114 373.3 114 360Z" fill="white"/>
  <path d="M339.1 360.5L362.5 337.1C368.4 331.2 377.6 331.2 383.5 337.1C389.4 343 389.4 352.2 383.5 358.1L360.1 381.5C354.2 387.4 345 387.4 339.1 381.5C333.2 375.6 333.2 366.4 339.1 360.5Z" fill="white"/>
  <path d="M362.5 381.5L339.1 358.1C333.2 352.2 333.2 343 339.1 337.1C345 331.2 354.2 331.2 360.1 337.1L383.5 360.5C389.4 366.4 389.4 375.6 383.5 381.5C377.6 387.4 368.4 387.4 362.5 381.5Z" fill="white"/>
  <path d="M304 368L318 354C320.8 351.2 325.2 351.2 328 354C330.8 356.8 330.8 361.2 328 364L314 378C311.2 380.8 306.8 380.8 304 378C301.2 375.2 301.2 370.8 304 368Z" fill="white"/>
  <path d="M394 378L380 364C377.2 361.2 377.2 356.8 380 354C382.8 351.2 387.2 351.2 390 354L404 368C406.8 370.8 406.8 375.2 404 378C401.2 380.8 396.8 380.8 394 378Z" fill="white"/>
  <path d="M471 256C471 214 457 175 435 142L408 169C408 169 420 192 428 230L471 256Z" fill="#28C3A6"/>
  <defs>
    <linearGradient id="gradient" x1="0" y1="0" x2="512" y2="512" gradientUnits="userSpaceOnUse">
      <stop offset="0" stop-color="#28C3A6"/>
      <stop offset="1" stop-color="#018DC4"/>
    </linearGradient>
  </defs>
</svg>